<svg xmlns="http://www.w3.org/2000/svg" xmlns:xlink="http://www.w3.org/1999/xlink" width="18" height="18" viewBox="0 0 18 18"><defs><style>.a{fill:none;}.b{clip-path:url(#a);}.c{fill:#a4a8be;fill-rule:evenodd;}</style><clipPath id="a"><rect class="a" width="18" height="18"/></clipPath></defs><g class="b"><rect class="a" width="19" height="19" transform="translate(0 0)"/><path class="c" d="M8.11,9.269a2.317,2.317,0,1,1-2.317,2.317A2.324,2.324,0,0,1,8.11,9.269Zm0-6.952A2.324,2.324,0,0,0,5.793,4.635h4.635A2.324,2.324,0,0,0,8.11,2.317ZM13.9,18.538H2.317A2.324,2.324,0,0,1,0,16.221V6.952A2.324,2.324,0,0,1,2.317,4.635H3.476a4.635,4.635,0,1,1,9.269,0H13.9a2.324,2.324,0,0,1,2.317,2.317v9.269A2.324,2.324,0,0,1,13.9,18.538Z" transform="translate(1.159)"/></g></svg>