<svg xmlns="http://www.w3.org/2000/svg" width="27" height="27" viewBox="0 0 27 27"><defs><style>.a{fill:#deeffb;}.b{fill:none;}.c{fill:#0090f3;}</style></defs><g transform="translate(-363.5 -1243)"><g transform="translate(363.5 1243)"><path class="a" d="M13.5,0A13.5,13.5,0,1,1,0,13.5,13.5,13.5,0,0,1,13.5,0Z"/></g><g transform="translate(369.13 1247.63)"><path class="b" d="M0,0H16.74V16.74H0Z"/><path class="c" d="M3,12.939v2.616H5.616L13.33,7.84,10.714,5.224ZM15.353,5.817a.7.7,0,0,0,0-.983L13.721,3.2a.7.7,0,0,0-.983,0L11.461,4.478l2.616,2.616,1.276-1.276Z" transform="translate(-0.907 -0.907)"/></g></g></svg>